<?xml version="1.0" encoding="UTF-8" standalone="no"?>
<svg
   xmlns:dc="http://purl.org/dc/elements/1.1/"
   xmlns:cc="http://creativecommons.org/ns#"
   xmlns:rdf="http://www.w3.org/1999/02/22-rdf-syntax-ns#"
   xmlns:svg="http://www.w3.org/2000/svg"
   xmlns="http://www.w3.org/2000/svg"
   id="svg8"
   version="1.1"
   viewBox="0 0 173.91943 173.91943"
   height="173.91943mm"
   width="173.91943mm">
  <defs
     id="defs2" />
  <metadata
     id="metadata5">
    <rdf:RDF>
      <cc:Work
         rdf:about="">
        <dc:format>image/svg+xml</dc:format>
        <dc:type
           rdf:resource="http://purl.org/dc/dcmitype/StillImage" />
        <dc:title></dc:title>
      </cc:Work>
    </rdf:RDF>
  </metadata>
  <g
     transform="translate(-19.683577,-19.602348)"
     style="display:inline"
     id="layer1">
    <rect
       ry="8.947751"
       y="19.602348"
       x="19.683577"
       height="173.91943"
       width="173.91943"
       id="rect1112"
       style="fill:#f6f7f2;fill-opacity:1;stroke:none;stroke-width:0.294;stroke-linecap:round;stroke-dashoffset:14.8913002;stroke-opacity:1" />
    <path
       d="m 130.01767,89.472303 c -9.16121,0 -16.53646,8.368811 -16.53646,18.763717 v 53.58484 c 0,1.65828 0.18938,3.26411 0.54208,4.7935 a 16.536459,11.698882 0 0 1 15.99438,-8.72866 16.536459,11.698882 0 0 1 15.99437,8.72866 c 0.3527,-1.52939 0.54208,-3.13522 0.54208,-4.7935 v -53.58484 c 0,-10.394906 -7.37525,-18.763717 -16.53645,-18.763717 z"
       style="fill:#ff7b79;fill-opacity:1;stroke-width:0.252078;stroke-linecap:round;stroke-dashoffset:14.8913002"
       id="rect941" />
    <circle
       r="16.536459"
       cy="61.086094"
       cx="130.01744"
       id="path989"
       style="fill:#ff7b79;fill-opacity:1;stroke-width:0.244069;stroke-linecap:round;stroke-dashoffset:14.8913002" />
    <path
       d="m 82.68309,89.472299 c -9.161202,0 -16.536462,8.368816 -16.536462,18.763721 v 53.58485 c 0,1.65827 0.18939,3.26411 0.54209,4.7935 a 16.536459,11.698882 0 0 1 15.994372,-8.72867 16.536459,11.698882 0 0 1 15.994364,8.72867 c 0.3527,-1.52939 0.54209,-3.13523 0.54209,-4.7935 v -53.58485 c 0,-10.394905 -7.37526,-18.763721 -16.536454,-18.763721 z"
       style="fill:#2faf84;fill-opacity:1;stroke-width:0.252078;stroke-linecap:round;stroke-dashoffset:14.8913002"
       id="rect941-3" />
    <circle
       r="16.536459"
       cy="61.086094"
       cx="82.682884"
       id="path989-0"
       style="fill:#2faf84;fill-opacity:1;stroke-width:0.244069;stroke-linecap:round;stroke-dashoffset:14.8913002" />
  </g>
</svg>
